<?xml version="1.0" encoding="utf-8"?>
<!-- Generator: Adobe Illustrator 24.3.0, SVG Export Plug-In . SVG Version: 6.00 Build 0)  -->
<svg version="1.1" id="Layer_1" xmlns="http://www.w3.org/2000/svg" xmlns:xlink="http://www.w3.org/1999/xlink" x="0px" y="0px"
	 viewBox="0 0 1920 1080" style="enable-background:new 0 0 1920 1080;" xml:space="preserve">
<style type="text/css">
	.st0{fill:#FF0000;}
	.st1{fill:#FF931E;}
	.st2{fill:#009245;}
	.st3{fill:none;stroke:#000000;stroke-miterlimit:10;stroke-dasharray:3;}
</style>
<g>
	<rect x="640.5" y="292.5" class="st0" width="119" height="599"/>
	<path d="M759,293v598H641V293H759 M760,292H640v600h120V292L760,292z"/>
</g>
<g>
	<rect x="791.5" y="242.5" class="st1" width="119" height="649"/>
	<path d="M910,243v648H792V243H910 M911,242H791v650h120V242L911,242z"/>
</g>
<g>
	<rect x="942.5" y="190.5" class="st2" width="119" height="699"/>
	<path d="M1061,191v698H943V191H1061 M1062,190H942v700h120V190L1062,190z"/>
</g>
<path class="st3" d="M592.5,113.5"/>
<g>
	<g>
		<path d="M701.64,260.95c15.69,0,30.73-13.8,30-30c-0.73-16.25-13.18-30-30-30c-15.69,0-30.73,13.8-30,30
			C672.37,247.2,684.83,260.95,701.64,260.95L701.64,260.95z"/>
	</g>
</g>
<g>
	<g>
		<path d="M850.96,206.89c15.69,0,30.73-13.8,30-30c-0.73-16.25-13.18-30-30-30c-15.69,0-30.73,13.8-30,30
			C821.69,193.14,834.14,206.89,850.96,206.89L850.96,206.89z"/>
	</g>
</g>
<g>
	<g>
		<path d="M1002.01,150.95c15.69,0,30.73-13.8,30-30c-0.73-16.25-13.18-30-30-30c-15.69,0-30.73,13.8-30,30
			C972.74,137.2,985.2,150.95,1002.01,150.95L1002.01,150.95z"/>
	</g>
</g>
</svg>
